<?xml version="1.0" encoding="utf-8"?><svg xmlns="http://www.w3.org/2000/svg" xmlns:xlink="http://www.w3.org/1999/xlink"><symbol id="ic_image_and_text" xmlns="http://www.w3.org/2000/svg" viewBox="0 0 330 250">
<style type="text/css">
	.st0{fill:#4B4B4B;}
</style>
<polygon class="st0" points="174,45.3 305,45.3 305,30.2 174,30.2 174,45.1 174,45.2 174,45.2 "/>
<path class="st0" d="M28.3,141.8v0.2h126.1V30.5H28.8h-0.4l0,0h-0.1v111V141.8L28.3,141.8z"/>
<polygon class="st0" points="28.2,181.8 305,181.8 305,166.7 28.2,166.7 28.2,181.6 28.2,181.7 28.2,181.7 "/>
<polygon class="st0" points="28.2,221.9 112.4,221.9 112.4,206.8 28.2,206.8 28.2,221.8 28.2,221.8 28.2,221.8 "/>
<polygon class="st0" points="174,86.2 305,86.2 305,71.1 174,71.1 174,86 174,86.1 174,86.1 "/>
<polygon class="st0" points="174,126.9 305,126.9 305,111.8 174,111.8 174,126.8 174,126.8 174,126.8 "/>
</symbol></svg>